<svg xmlns="http://www.w3.org/2000/svg" width="120" height="120" viewBox="0 0 120 120">
  <style>
    .sc-bg {
      animation: sc-pop-in 0.5s ease-out forwards;
    }
    .sc-star {
      animation: sc-star-in 0.5s ease-out 0.5s forwards, sc-star-twinkle 1.6s ease-in-out 1.0s infinite;
    }
    .sc-c1 { animation: sc-burst-1 1.8s ease-out 0.8s infinite; }
    .sc-c2 { animation: sc-burst-2 1.8s ease-out 0.8s infinite; }
    .sc-c3 { animation: sc-burst-3 1.8s ease-out 0.8s infinite; }
    .sc-c4 { animation: sc-burst-4 1.8s ease-out 0.8s infinite; }
    .sc-c5 { animation: sc-burst-5 1.8s ease-out 0.8s infinite; }
    .sc-c6 { animation: sc-burst-6 1.8s ease-out 0.8s infinite; }

    .sc-s1 { animation: sc-twinkle 1.2s ease-in-out 0.8s infinite; }
    .sc-s2 { animation: sc-twinkle 1.2s ease-in-out 1.2s infinite; }
    .sc-s3 { animation: sc-twinkle 1.2s ease-in-out 1.6s infinite; }

    @keyframes sc-pop-in {
      0% { transform: scale(0); }
      80% { transform: scale(1.06); }
      100% { transform: scale(1); }
    }
    @keyframes sc-star-in {
      0% { transform: scale(0); opacity: 0; }
      70% { transform: scale(1.15); opacity: 1; }
      100% { transform: scale(1); opacity: 1; }
    }
    @keyframes sc-star-twinkle {
      0%, 100% { transform: scale(1); opacity: 1; }
      50% { transform: scale(0.8); opacity: 0.5; }
    }

    @keyframes sc-burst-1 {
      0% { transform: translate(0,0) scale(1); opacity: 1; }
      60% { transform: translate(18px,-24px) scale(0.6); opacity: 0.8; }
      100% { transform: translate(26px,-32px) scale(0); opacity: 0; }
    }
    @keyframes sc-burst-2 {
      0% { transform: translate(0,0) scale(1); opacity: 1; }
      60% { transform: translate(24px,-12px) scale(0.6); opacity: 0.8; }
      100% { transform: translate(34px,-16px) scale(0); opacity: 0; }
    }
    @keyframes sc-burst-3 {
      0% { transform: translate(0,0) scale(1); opacity: 1; }
      60% { transform: translate(26px,6px) scale(0.6); opacity: 0.8; }
      100% { transform: translate(36px,8px) scale(0); opacity: 0; }
    }
    @keyframes sc-burst-4 {
      0% { transform: translate(0,0) scale(1); opacity: 1; }
      60% { transform: translate(14px,-30px) scale(0.6); opacity: 0.8; }
      100% { transform: translate(20px,-40px) scale(0); opacity: 0; }
    }
    @keyframes sc-burst-5 {
      0% { transform: translate(0,0) scale(1); opacity: 1; }
      60% { transform: translate(30px,-4px) scale(0.6); opacity: 0.8; }
      100% { transform: translate(40px,-6px) scale(0); opacity: 0; }
    }
    @keyframes sc-burst-6 {
      0% { transform: translate(0,0) scale(1); opacity: 1; }
      60% { transform: translate(20px,16px) scale(0.6); opacity: 0.8; }
      100% { transform: translate(28px,22px) scale(0); opacity: 0; }
    }

    @keyframes sc-twinkle {
      0%, 100% { transform: scale(0); opacity: 0; }
      50% { transform: scale(1); opacity: 1; }
    }
  </style>

  <rect class="sc-bg" x="8" y="8" width="104" height="104" rx="24" fill="#f59e0b"
        style="transform-origin:60px 60px; transform:scale(0)"/>

  <polygon class="sc-star" points="60,28 67,48 88,48 71,60 78,80 60,68 42,80 49,60 32,48 53,48"
           fill="#fff" opacity="0"
           style="transform-origin:60px 56px"/>

  <rect class="sc-c1" x="52" y="48" width="5" height="5" rx="1" fill="#fff" transform="rotate(20 54 50)"/>
  <rect class="sc-c2" x="56" y="42" width="5" height="5" rx="1" fill="#fef3c7" transform="rotate(-15 58 44)"/>
  <circle class="sc-c3" cx="58" cy="56" r="3" fill="#fff"/>
  <circle class="sc-c4" cx="54" cy="52" r="3" fill="#fef3c7"/>
  <rect class="sc-c5" x="50" y="46" width="4" height="6" rx="1" fill="#fff" transform="rotate(30 52 49)"/>
  <rect class="sc-c6" x="54" y="58" width="5" height="4" rx="1" fill="#fef3c7" transform="rotate(-25 56 60)"/>

  <polygon class="sc-s1" points="24,28 28,18 32,28 42,32 32,36 28,46 24,36 14,32"
           fill="#fff" style="transform-origin:28px 32px"/>
  <polygon class="sc-s2" points="82,18 86,8 90,18 100,22 90,26 86,36 82,26 72,22"
           fill="#fff" style="transform-origin:86px 22px"/>
  <polygon class="sc-s3" points="86,72 90,62 94,72 104,76 94,80 90,90 86,80 76,76"
           fill="#fff" style="transform-origin:90px 76px"/>
</svg>
